<?xml version="1.0" standalone="no"?><!DOCTYPE svg PUBLIC "-//W3C//DTD SVG 1.1//EN" "http://www.w3.org/Graphics/SVG/1.1/DTD/svg11.dtd"><svg t="1645606759838" class="icon" viewBox="0 0 1024 1024" version="1.1" xmlns="http://www.w3.org/2000/svg" p-id="20661" width="16" height="16" xmlns:xlink="http://www.w3.org/1999/xlink"><defs><style type="text/css"></style></defs><path d="M671.6416 903.8336h-315.392c-144.5888 0-262.1952-117.6064-262.1952-262.1952v-264.192c0-144.5888 117.6064-262.1952 262.1952-262.1952h315.392c144.5888 0 262.1952 117.6064 262.1952 262.1952v264.2432c0 144.5376-117.6064 262.144-262.1952 262.144zM356.2496 176.6912c-110.6944 0-200.7552 90.0608-200.7552 200.7552v264.2432c0 110.6944 90.0608 200.7552 200.7552 200.7552h315.392c110.6944 0 200.7552-90.0608 200.7552-200.7552V377.4464c0-110.6944-90.0608-200.7552-200.7552-200.7552h-315.392z" fill="#333333" p-id="20662"></path><path d="M638.7712 458.3936L468.3776 360.0384c-39.3728-22.7328-88.576 5.6832-88.576 51.1488v196.7616c0 45.4656 49.2032 73.8816 88.576 51.1488l170.3936-98.3552c39.3728-22.784 39.3728-79.616 0-102.3488z" fill="#F55C04" p-id="20663"></path></svg>